<svg width="40" height="40" viewBox="0 0 40 40" fill="none" xmlns="http://www.w3.org/2000/svg">
    <rect width="40" height="40" rx="10" fill="#D67AE4" fill-opacity="0.56"/>
    <g style="mix-blend-mode:darken">
        <path d="M3.88068 19V11.7273H6.33807C6.90862 11.7273 7.375 11.8303 7.73722 12.0362C8.1018 12.2398 8.37169 12.5156 8.54688 12.8636C8.72206 13.2116 8.80966 13.5999 8.80966 14.0284C8.80966 14.4569 8.72206 14.8464 8.54688 15.1967C8.37405 15.5471 8.10653 15.8265 7.74432 16.0348C7.3821 16.2408 6.91809 16.3438 6.35227 16.3438H4.59091V15.5625H6.32386C6.71449 15.5625 7.02817 15.495 7.26491 15.3601C7.50166 15.2251 7.6733 15.0429 7.77983 14.8132C7.88873 14.5812 7.94318 14.3196 7.94318 14.0284C7.94318 13.7372 7.88873 13.4768 7.77983 13.2472C7.6733 13.0175 7.50047 12.8376 7.26136 12.7074C7.02225 12.5748 6.70502 12.5085 6.30966 12.5085H4.76136V19H3.88068ZM16.3647 15.3636C16.3647 16.1307 16.2262 16.7936 15.9492 17.3523C15.6722 17.911 15.2923 18.3419 14.8093 18.6449C14.3263 18.9479 13.7747 19.0994 13.1545 19.0994C12.5342 19.0994 11.9826 18.9479 11.4996 18.6449C11.0167 18.3419 10.6367 17.911 10.3597 17.3523C10.0827 16.7936 9.94425 16.1307 9.94425 15.3636C9.94425 14.5966 10.0827 13.9337 10.3597 13.375C10.6367 12.8163 11.0167 12.3854 11.4996 12.0824C11.9826 11.7794 12.5342 11.6278 13.1545 11.6278C13.7747 11.6278 14.3263 11.7794 14.8093 12.0824C15.2923 12.3854 15.6722 12.8163 15.9492 13.375C16.2262 13.9337 16.3647 14.5966 16.3647 15.3636ZM15.5124 15.3636C15.5124 14.7339 15.4071 14.2024 15.1964 13.7692C14.988 13.3359 14.7051 13.008 14.3477 12.7855C13.9925 12.563 13.5948 12.4517 13.1545 12.4517C12.7141 12.4517 12.3152 12.563 11.9577 12.7855C11.6026 13.008 11.3197 13.3359 11.109 13.7692C10.9007 14.2024 10.7965 14.7339 10.7965 15.3636C10.7965 15.9934 10.9007 16.5249 11.109 16.9581C11.3197 17.3913 11.6026 17.7192 11.9577 17.9418C12.3152 18.1643 12.7141 18.2756 13.1545 18.2756C13.5948 18.2756 13.9925 18.1643 14.3477 17.9418C14.7051 17.7192 14.988 17.3913 15.1964 16.9581C15.4071 16.5249 15.5124 15.9934 15.5124 15.3636ZM20.6296 11.7273H21.5103V16.9261C21.5103 17.3902 21.4251 17.7843 21.2546 18.1087C21.0842 18.433 20.8439 18.6792 20.5337 18.8473C20.2236 19.0154 19.8578 19.0994 19.4364 19.0994C19.0387 19.0994 18.6848 19.0272 18.3746 18.8828C18.0645 18.736 17.8207 18.5277 17.6431 18.2578C17.4656 17.9879 17.3768 17.6671 17.3768 17.2955H18.2433C18.2433 17.5014 18.2942 17.6813 18.396 17.8352C18.5001 17.9867 18.6422 18.1051 18.8221 18.1903C19.002 18.2756 19.2068 18.3182 19.4364 18.3182C19.6897 18.3182 19.9052 18.2649 20.0827 18.1584C20.2603 18.0518 20.3952 17.8956 20.4876 17.6896C20.5823 17.4813 20.6296 17.2268 20.6296 16.9261V11.7273ZM29.4116 15.3636C29.4116 16.1307 29.2731 16.7936 28.9961 17.3523C28.7191 17.911 28.3391 18.3419 27.8562 18.6449C27.3732 18.9479 26.8216 19.0994 26.2013 19.0994C25.5811 19.0994 25.0295 18.9479 24.5465 18.6449C24.0636 18.3419 23.6836 17.911 23.4066 17.3523C23.1296 16.7936 22.9911 16.1307 22.9911 15.3636C22.9911 14.5966 23.1296 13.9337 23.4066 13.375C23.6836 12.8163 24.0636 12.3854 24.5465 12.0824C25.0295 11.7794 25.5811 11.6278 26.2013 11.6278C26.8216 11.6278 27.3732 11.7794 27.8562 12.0824C28.3391 12.3854 28.7191 12.8163 28.9961 13.375C29.2731 13.9337 29.4116 14.5966 29.4116 15.3636ZM28.5593 15.3636C28.5593 14.7339 28.454 14.2024 28.2433 13.7692C28.0349 13.3359 27.752 13.008 27.3945 12.7855C27.0394 12.563 26.6417 12.4517 26.2013 12.4517C25.761 12.4517 25.3621 12.563 25.0046 12.7855C24.6495 13.008 24.3666 13.3359 24.1559 13.7692C23.9476 14.2024 23.8434 14.7339 23.8434 15.3636C23.8434 15.9934 23.9476 16.5249 24.1559 16.9581C24.3666 17.3913 24.6495 17.7192 25.0046 17.9418C25.3621 18.1643 25.761 18.2756 26.2013 18.2756C26.6417 18.2756 27.0394 18.1643 27.3945 17.9418C27.752 17.7192 28.0349 17.3913 28.2433 16.9581C28.454 16.5249 28.5593 15.9934 28.5593 15.3636ZM30.7646 19V18.3608L33.1651 15.733C33.4469 15.4252 33.6789 15.1577 33.8612 14.9304C34.0434 14.7008 34.1784 14.4853 34.266 14.2841C34.3559 14.0805 34.4009 13.8674 34.4009 13.6449C34.4009 13.3892 34.3394 13.1679 34.2163 12.9808C34.0955 12.7938 33.9298 12.6494 33.7191 12.5476C33.5084 12.4458 33.2717 12.3949 33.0089 12.3949C32.7295 12.3949 32.4857 12.4529 32.2773 12.5689C32.0714 12.6825 31.9116 12.8423 31.7979 13.0483C31.6867 13.2543 31.631 13.4957 31.631 13.7727H30.793C30.793 13.3466 30.8912 12.9725 31.0877 12.6506C31.2842 12.3286 31.5517 12.0777 31.8903 11.8977C32.2312 11.7178 32.6135 11.6278 33.0373 11.6278C33.4634 11.6278 33.841 11.7178 34.1701 11.8977C34.4992 12.0777 34.7572 12.3203 34.9442 12.6257C35.1313 12.9311 35.2248 13.2708 35.2248 13.6449C35.2248 13.9124 35.1763 14.174 35.0792 14.4297C34.9845 14.683 34.8188 14.9659 34.582 15.2784C34.3477 15.5885 34.0221 15.9673 33.6055 16.4148L31.9719 18.1619V18.2188H35.3526V19H30.7646ZM4.17898 29H3.25568L5.92614 21.7273H6.83523L9.50568 29H8.58239L6.40909 22.8778H6.35227L4.17898 29ZM4.51989 26.1591H8.24148V26.9403H4.51989V26.1591ZM14.3015 23.5455L12.2844 29H11.4322L9.41513 23.5455H10.3242L11.8299 27.892H11.8867L13.3924 23.5455H14.3015ZM15.4077 29V23.5455H16.2173V24.3693H16.2741C16.3736 24.0994 16.5535 23.8804 16.8139 23.7124C17.0743 23.5443 17.3679 23.4602 17.6946 23.4602C17.7562 23.4602 17.8331 23.4614 17.9254 23.4638C18.0178 23.4661 18.0876 23.4697 18.1349 23.4744V24.3267C18.1065 24.3196 18.0414 24.3089 17.9396 24.2947C17.8402 24.2782 17.7348 24.2699 17.6236 24.2699C17.3584 24.2699 17.1217 24.3255 16.9134 24.4368C16.7074 24.5457 16.544 24.6972 16.4233 24.8913C16.3049 25.0831 16.2457 25.3021 16.2457 25.5483V29H15.4077ZM21.1783 29.1136C20.6858 29.1136 20.2538 28.9964 19.8821 28.7621C19.5128 28.5277 19.224 28.1998 19.0156 27.7784C18.8097 27.357 18.7067 26.8646 18.7067 26.3011C18.7067 25.733 18.8097 25.237 19.0156 24.8132C19.224 24.3894 19.5128 24.0604 19.8821 23.826C20.2538 23.5916 20.6858 23.4744 21.1783 23.4744C21.6707 23.4744 22.1016 23.5916 22.4709 23.826C22.8426 24.0604 23.1314 24.3894 23.3374 24.8132C23.5457 25.237 23.6499 25.733 23.6499 26.3011C23.6499 26.8646 23.5457 27.357 23.3374 27.7784C23.1314 28.1998 22.8426 28.5277 22.4709 28.7621C22.1016 28.9964 21.6707 29.1136 21.1783 29.1136ZM21.1783 28.3608C21.5523 28.3608 21.8601 28.2649 22.1016 28.0732C22.343 27.8814 22.5218 27.6293 22.6378 27.3168C22.7538 27.0043 22.8118 26.6657 22.8118 26.3011C22.8118 25.9366 22.7538 25.5968 22.6378 25.282C22.5218 24.9671 22.343 24.7126 22.1016 24.5185C21.8601 24.3243 21.5523 24.2273 21.1783 24.2273C20.8042 24.2273 20.4964 24.3243 20.255 24.5185C20.0135 24.7126 19.8348 24.9671 19.7188 25.282C19.6027 25.5968 19.5447 25.9366 19.5447 26.3011C19.5447 26.6657 19.6027 27.0043 19.7188 27.3168C19.8348 27.6293 20.0135 27.8814 20.255 28.0732C20.4964 28.2649 20.8042 28.3608 21.1783 28.3608Z" fill="#301A1A"/>
    </g>
</svg>
